REM DIRINDEX 1\2\5,1\2\6,1\2\7,1\2\8,1\3\9,1\3\10,1\3\11,1\4\12,1\4\13,1\4\14,1\4\15,1\4\16
REM DIRNAME folder01,folder02,folder03,folder04,folder05,folder06,folder07,folder08,folder09,folder10,folder11,folder12,folder13,folder14,folder15,folder16
TITLE ""
FILE "1200_sec03_1102_1110.mp3" MP3
  TRACK 01 AUDIO
    TITLE "0:"
    INDEX 01 00:00:00
  TRACK 02 AUDIO
    TITLE "12:cjc034_08098"
    INDEX 01 00:00:17
  TRACK 03 AUDIO
    TITLE "0:"
    INDEX 01 00:01:28
  TRACK 04 AUDIO
    TITLE "13:cjc034_08099"
    INDEX 01 00:01:62
  TRACK 05 AUDIO
    TITLE "0:"
    INDEX 01 00:02:69
  TRACK 06 AUDIO
    TITLE "14:cjc034_08100"
    INDEX 01 00:03:27
  TRACK 07 AUDIO
    TITLE "0:"
    INDEX 01 00:04:38
  TRACK 08 AUDIO
    TITLE "15:cjc034_08101"
    INDEX 01 00:04:72
  TRACK 09 AUDIO
    TITLE "0:"
    INDEX 01 00:09:20
  TRACK 10 AUDIO
    TITLE "12:cjc034_08102"
    INDEX 01 00:10:59
  TRACK 11 AUDIO
    TITLE "0:"
    INDEX 01 00:11:74
  TRACK 12 AUDIO
    TITLE "13:cjc034_08103"
    INDEX 01 00:12:34
  TRACK 13 AUDIO
    TITLE "0:"
    INDEX 01 00:13:43
  TRACK 14 AUDIO
    TITLE "14:cjc034_08104"
    INDEX 01 00:13:73
  TRACK 15 AUDIO
    TITLE "0:"
    INDEX 01 00:15:15
  TRACK 16 AUDIO
    TITLE "15:cjc034_08105"
    INDEX 01 00:15:52
  TRACK 17 AUDIO
    TITLE "0:"
    INDEX 01 00:20:24
  TRACK 18 AUDIO
    TITLE "12:cjc034_08106"
    INDEX 01 00:21:70
  TRACK 19 AUDIO
    TITLE "0:"
    INDEX 01 00:22:64
  TRACK 20 AUDIO
    TITLE "13:cjc034_08107"
    INDEX 01 00:23:42
  TRACK 21 AUDIO
    TITLE "0:"
    INDEX 01 00:24:53
  TRACK 22 AUDIO
    TITLE "14:cjc034_08108"
    INDEX 01 00:25:17
  TRACK 23 AUDIO
    TITLE "0:"
    INDEX 01 00:26:11
  TRACK 24 AUDIO
    TITLE "15:cjc034_08109"
    INDEX 01 00:26:62
  TRACK 25 AUDIO
    TITLE "0:"
    INDEX 01 00:30:20
  TRACK 26 AUDIO
    TITLE "12:cjc034_08110"
    INDEX 01 00:31:53
  TRACK 27 AUDIO
    TITLE "0:"
    INDEX 01 00:32:74
  TRACK 28 AUDIO
    TITLE "13:cjc034_08111"
    INDEX 01 00:33:34
  TRACK 29 AUDIO
    TITLE "0:"
    INDEX 01 00:36:62
  TRACK 30 AUDIO
    TITLE "14:cjc034_08112"
    INDEX 01 00:37:20
  TRACK 31 AUDIO
    TITLE "0:"
    INDEX 01 00:38:45
  TRACK 32 AUDIO
    TITLE "15:cjc034_08113"
    INDEX 01 00:39:03
  TRACK 33 AUDIO
    TITLE "0:"
    INDEX 01 00:43:33
  TRACK 34 AUDIO
    TITLE "16:cjc034_08114"
    INDEX 01 00:44:67
  TRACK 35 AUDIO
    TITLE "0:"
    INDEX 01 00:50:46
  TRACK 36 AUDIO
    TITLE "12:cjc034_08115"
    INDEX 01 00:51:48
  TRACK 37 AUDIO
    TITLE "0:"
    INDEX 01 00:52:69
  TRACK 38 AUDIO
    TITLE "13:cjc034_08116"
    INDEX 01 00:53:35
  TRACK 39 AUDIO
    TITLE "0:"
    INDEX 01 00:55:48
  TRACK 40 AUDIO
    TITLE "14:cjc034_08117"
    INDEX 01 00:56:06
  TRACK 41 AUDIO
    TITLE "0:"
    INDEX 01 00:57:27
  TRACK 42 AUDIO
    TITLE "15:cjc034_08118"
    INDEX 01 00:57:68
  TRACK 43 AUDIO
    TITLE "0:"
    INDEX 01 01:01:58
  TRACK 44 AUDIO
    TITLE "12:cjc034_08119"
    INDEX 01 01:03:26
  TRACK 45 AUDIO
    TITLE "0:"
    INDEX 01 01:04:68
  TRACK 46 AUDIO
    TITLE "13:cjc034_08120"
    INDEX 01 01:05:24
  TRACK 47 AUDIO
    TITLE "0:"
    INDEX 01 01:08:15
  TRACK 48 AUDIO
    TITLE "14:cjc034_08121"
    INDEX 01 01:08:48
  TRACK 49 AUDIO
    TITLE "0:"
    INDEX 01 01:10:14
  TRACK 50 AUDIO
    TITLE "15:cjc034_08122"
    INDEX 01 01:10:47
  TRACK 51 AUDIO
    TITLE "0:"
    INDEX 01 01:16:73
  TRACK 52 AUDIO
    TITLE "12:cjc034_08123"
    INDEX 01 01:18:31
  TRACK 53 AUDIO
    TITLE "0:"
    INDEX 01 01:19:44
  TRACK 54 AUDIO
    TITLE "13:cjc034_08124"
    INDEX 01 01:19:74
  TRACK 55 AUDIO
    TITLE "0:"
    INDEX 01 01:22:41
  TRACK 56 AUDIO
    TITLE "14:cjc034_08125"
    INDEX 01 01:22:72
  TRACK 57 AUDIO
    TITLE "0:"
    INDEX 01 01:24:08
  TRACK 58 AUDIO
    TITLE "15:cjc034_08126"
    INDEX 01 01:24:41
  TRACK 59 AUDIO
    TITLE "0:"
    INDEX 01 01:29:15
  TRACK 60 AUDIO
    TITLE "12:cjc034_08127"
    INDEX 01 01:30:48
  TRACK 61 AUDIO
    TITLE "0:"
    INDEX 01 01:31:69
  TRACK 62 AUDIO
    TITLE "13:cjc034_08128"
    INDEX 01 01:32:29
  TRACK 63 AUDIO
    TITLE "0:"
    INDEX 01 01:35:27
  TRACK 64 AUDIO
    TITLE "14:cjc034_08129"
    INDEX 01 01:35:59
  TRACK 65 AUDIO
    TITLE "0:"
    INDEX 01 01:37:05
  TRACK 66 AUDIO
    TITLE "15:cjc034_08130"
    INDEX 01 01:37:40
  TRACK 67 AUDIO
    TITLE "0:"
    INDEX 01 01:42:16
  TRACK 68 AUDIO
    TITLE "12:cjc034_08131"
    INDEX 01 01:43:51
  TRACK 69 AUDIO
    TITLE "0:"
    INDEX 01 01:44:64
  TRACK 70 AUDIO
    TITLE "13:cjc034_08132"
    INDEX 01 01:45:24
  TRACK 71 AUDIO
    TITLE "0:"
    INDEX 01 01:49:49
  TRACK 72 AUDIO
    TITLE "14:cjc034_08133"
    INDEX 01 01:50:07
  TRACK 73 AUDIO
    TITLE "0:"
    INDEX 01 01:51:21
  TRACK 74 AUDIO
    TITLE "15:cjc034_08134"
    INDEX 01 01:51:56
  TRACK 75 AUDIO
    TITLE "0:"
    INDEX 01 01:57:31
